<svg width="242" height="242" viewBox="0 0 242 242" fill="none" xmlns="http://www.w3.org/2000/svg">
<circle cx="121" cy="121" r="121" fill="#ED1C23"/>
<path d="M53.8846 55.6117C48.8435 53.8706 43.8023 52.1294 38.7612 50.3883C38.2725 52.0591 37.8351 53.7371 37.4382 55.4172C35.2228 65.0683 33.975 74.8574 34.7345 85.0825C35.4352 94.7549 39.0884 107.982 50.9543 112.644C61.1523 117.448 76.9411 115.446 83.2566 104.838C84.2806 103.309 85.1456 101.672 85.7826 99.8808C83.9275 99.1333 82.0725 98.3858 80.2174 97.6383C79.663 98.7888 78.8959 99.9436 78.0305 100.973C72.2926 108.041 62.8544 108.174 54.9194 103.776C43.1176 96.981 47.1343 75.0595 52.3338 59.7031C52.823 58.3045 53.3426 56.9258 53.8846 55.6117Z" fill="white"/>
<path d="M77.9235 93.0422C77.592 95.0145 77.2606 96.9868 76.9291 98.9592C79.9765 99.5164 82.8912 99.8625 85.909 100.08C92.4242 100.402 99.1453 100.72 106.263 97.3184C115.749 93.107 121.472 79.6779 116.589 69.5933C113.719 61.3532 104.095 54.3527 94.8252 54.803C83.0442 54.0622 72.0232 64.4973 69.2079 74.6755C65.2934 84.4552 64.7599 101.181 76.7494 109.602C87.7098 117.392 99.6986 117.928 110.961 116.995C114.225 116.652 117.487 116.088 120.825 115.132C119.226 110.044 117.627 104.956 116.028 99.8685C113.875 100.631 111.437 101.22 108.97 101.624C100.402 103.02 90.6948 102.353 84.8324 98.4754C79.0408 94.9689 78.0304 87.1864 80.6448 78.3257C82.7072 70.6721 87.6283 65.5219 95.0273 65.198C100.802 64.8111 105.596 67.6476 108.263 73.2938C111.49 79.4339 109.102 86.9675 102.59 90.6829C98.4656 93.0965 92.097 93.6386 86.1842 93.5859C83.4329 93.5508 80.5563 93.367 77.9235 93.0422Z" fill="white"/>
<path d="M196.907 78.8001C201.217 79.2451 205.527 79.6902 209.838 80.1352C210.35 76.6472 209.522 72.5838 207.61 69.5148C201.202 60.1959 191.971 58.309 183.167 58.5475C178.713 58.8521 173.811 60.0555 169.431 63.6022C164.948 67.0888 162.436 73.3927 162.547 78.5C162.365 82.9351 164.232 89.2704 168.738 92.9227C173.104 96.5698 177.751 97.5263 181.61 98.016C181.986 98.06 182.357 98.0974 182.714 98.1289C185.971 98.4135 189.005 98.6085 191.549 99.0074C192.796 99.1976 193.94 99.4737 194.489 99.6802C194.756 99.7705 194.843 99.8511 194.613 99.6544C194.405 99.4827 193.8 98.8206 193.533 97.9111C194.223 99.7561 194.188 101.232 194.035 101.664C193.958 102.081 193.423 102.891 191.543 103.682C187.802 105.243 181.88 105.529 176.174 105.19C175.548 105.153 174.901 105.118 174.236 105.079C173.528 105.037 172.849 104.996 172.125 104.94C170.701 104.827 169.436 104.729 167.994 104.576C167.331 108.859 166.669 113.141 166.006 117.424C167.56 117.733 168.933 118.003 170.51 118.256C171.31 118.385 172.068 118.505 172.865 118.616C173.615 118.719 174.351 118.81 175.072 118.882C181.77 119.436 188.535 120.022 196.649 117.411C200.591 116.079 205.579 113.046 207.945 107.616C210.27 102.256 209.54 97.1109 208.319 93.0889C206.56 87.9616 202.687 86.1342 200.502 85.147C198.107 84.1481 196.129 83.7298 194.248 83.3727C190.524 82.7043 187.205 82.4779 184.139 82.1935C183.911 82.1728 183.684 82.1495 183.464 82.1238C181.182 81.8889 179.504 81.1902 179.062 80.7782C178.817 80.5703 178.747 80.4965 178.603 80.1966C178.47 79.9046 178.324 79.3315 178.306 78.5001C178.321 76.776 178.558 76.2475 179.376 75.3943C180.215 74.558 182.149 73.7049 184.406 73.4457C188.882 72.7624 194.727 74.7153 196.17 76.813C196.655 77.4408 196.881 77.8932 196.907 78.8001Z" fill="white"/>
<path d="M129.299 59.6657C125.645 59.9712 121.991 60.2768 118.337 60.5824C118.494 62.9565 118.65 65.3306 118.807 67.7047C119.714 81.444 120.621 95.1833 121.528 108.923C122.144 116.401 133.051 116.729 134.137 109.304C135.35 101.104 135.957 93.6553 137.711 86.8002C138.549 83.4669 139.793 80.2023 141.085 78.5992C141.722 77.7921 142.115 77.6827 142.136 77.7185C142.171 77.7277 142.217 77.7244 142.433 77.754C142.638 77.7845 142.982 77.8617 143.447 78.0401C144.043 77.6646 147.264 83.7882 147.921 89.4976C148.877 95.3802 149.098 101.807 148.784 107.972C148.67 110.099 148.463 112.419 148.156 113.961C153.409 114.883 158.662 115.805 163.915 116.727C164.389 113.589 164.461 111.13 164.525 108.518C164.625 101.239 164.161 94.1151 162.71 86.7505C160.681 79.8069 160.56 70.3567 148.106 64.4833C145.386 63.5669 141.64 63.0169 137.925 64.23C134.196 65.4165 131.519 68.0234 129.871 70.3428C126.591 75.1091 125.545 79.4862 124.555 83.7031C122.749 92.0511 122.404 100.271 121.572 107.483L134.181 107.865C132.793 94.1655 131.406 80.4663 130.018 66.7672C129.778 64.4 129.539 62.0328 129.299 59.6657Z" fill="white"/>
<path d="M64.0507 135.196C59.1616 133.065 54.2724 130.935 49.3833 128.804C48.6835 130.619 48.0622 132.432 47.4925 134.266C44.5049 144.184 42.6544 154.428 43.7266 165.35C44.3135 175.947 51.7518 189.056 63.3841 191.948C75.9224 196.096 92.6886 195.427 102.299 184.233C103.606 182.722 104.778 181.049 105.674 179.119C103.891 178.213 102.109 177.306 100.326 176.4C99.6341 177.574 98.6515 178.751 97.5735 179.77C89.5323 187.402 77.1045 186.941 66.7422 182.471C52.0065 176.754 55.6501 154.973 62.0827 139.498C62.7024 138.017 63.3599 136.573 64.0507 135.196Z" fill="white"/>
<circle cx="111" cy="161" r="26" fill="white"/>
<path d="M185.418 149.861C185.808 143.268 178.523 128.55 162.823 130.522C147.122 132.495 144.025 145.685 144.679 151.5C144.423 159.668 150.5 170.042 164.604 170.042C180.233 170.042 186.362 156.604 185.418 149.861ZM185.418 149.861C189.33 168.464 183.349 201.928 144.679 195.068" stroke="white" stroke-width="16" stroke-linejoin="round"/>
<circle cx="106" cy="173" r="4" fill="#ED1C23"/>
<circle cx="116" cy="158" r="10" fill="#ED1C23"/>
</svg>
